<svg version="1.1" id="Layer_1" xmlns="http://www.w3.org/2000/svg" xmlns:xlink="http://www.w3.org/1999/xlink" x="0px" y="0px"
	 width="100%" viewBox="0 0 1024 192" enable-background="new 0 0 1024 192" xml:space="preserve">
<path fill="#000000" opacity="1.000000" stroke="none" 
	d="
M768.000000,193.000000 
	C512.000000,193.000000 256.500000,193.000000 1.000000,193.000000 
	C1.000000,129.000000 1.000000,65.000000 1.000000,1.000000 
	C342.333344,1.000000 683.666687,1.000000 1025.000000,1.000000 
	C1025.000000,65.000000 1025.000000,129.000000 1025.000000,193.000000 
	C939.500000,193.000000 854.000000,193.000000 768.000000,193.000000 
M216.103333,129.571106 
	C224.684738,123.045822 233.278046,116.536133 241.845291,109.992310 
	C267.302002,90.548004 292.747375,71.088860 318.201874,51.641655 
	C319.599518,50.573872 321.279266,49.691856 320.753204,47.624416 
	C319.671112,46.931545 318.932007,47.197441 318.132599,47.538670 
	C304.080994,53.536575 289.975830,59.411255 275.971649,65.517609 
	C247.068451,78.120491 218.236557,90.886879 189.340958,103.507301 
	C158.129196,117.139320 126.875107,130.674438 95.645576,144.265823 
	C79.961105,151.091888 64.268768,157.900909 48.639149,164.850677 
	C46.594643,165.759781 43.772148,166.498230 44.054138,169.803207 
	C52.840546,171.863434 332.898285,170.916199 335.935669,168.003571 
	C313.894806,162.231598 291.258240,159.431976 268.878479,155.314545 
	C246.347290,151.169235 223.481628,148.774460 200.180130,143.148758 
	C204.893860,137.066437 210.267700,133.602798 216.103333,129.571106 
M209.023987,89.342064 
	C210.268921,88.874458 211.537476,88.461166 212.755325,87.931343 
	C246.237915,73.364792 279.720978,58.799232 313.179688,44.177963 
	C315.192535,43.298367 317.484131,42.414970 317.837646,39.553345 
	C315.772736,37.997593 313.551178,38.422707 311.445648,38.422295 
	C239.794037,38.408249 168.142410,38.413269 96.490799,38.410652 
	C85.826439,38.410263 75.161980,38.358383 64.497787,38.395241 
	C62.327442,38.402740 59.823250,38.004948 58.288803,41.948036 
	C100.933929,49.188206 143.604034,52.345779 185.867554,59.318405 
	C182.970795,62.639004 180.153564,65.179306 177.052948,67.306549 
	C152.819977,83.932030 128.593399,100.568184 104.242729,117.020271 
	C84.863564,130.113449 65.272926,142.893661 45.899273,155.994858 
	C43.996883,157.281311 41.046890,158.320847 41.014034,161.662323 
	C43.599327,162.380676 45.444321,160.896667 47.302547,160.089172 
	C78.358765,146.593735 109.374489,133.005035 140.392960,119.422813 
	C163.038712,109.506821 185.675369,99.570023 209.023987,89.342064 
M494.753510,109.334435 
	C498.332336,107.887077 497.463196,104.255013 498.367310,101.592216 
	C500.240051,96.076340 499.096954,94.934570 493.373810,96.284576 
	C476.589355,100.243782 459.881989,104.548767 443.039307,108.238350 
	C411.442810,115.159935 379.877228,122.190628 348.513855,130.119812 
	C336.943329,133.045029 336.894745,132.852814 336.354065,144.238937 
	C336.052277,150.594421 336.054382,150.713837 342.587891,150.599350 
	C373.533173,150.057205 404.482117,151.469131 435.438446,149.786102 
	C451.715851,148.901123 468.080780,149.608429 484.406097,149.650574 
	C485.973267,149.654617 487.772491,149.194016 489.191528,151.111145 
	C487.276978,156.720718 485.342743,162.487503 483.335480,168.228745 
	C482.273132,171.267166 483.262604,172.650665 486.477295,172.625763 
	C492.473999,172.579300 498.471313,172.621841 504.468170,172.588364 
	C507.711273,172.570267 509.668152,170.988632 510.587128,167.803024 
	C512.149902,162.385742 514.068237,157.068588 515.546631,151.630371 
	C516.336365,148.725204 517.806274,147.486115 520.811829,147.596039 
	C525.303894,147.760330 529.805420,147.647507 534.301575,147.730499 
	C535.462769,147.751923 536.782166,148.215088 537.487244,147.003372 
	C539.561157,143.439529 538.869507,139.501953 538.248230,135.819611 
	C537.735901,132.782883 534.696716,133.523361 532.432251,133.377686 
	C530.495667,133.253113 528.440002,133.855225 526.281799,132.296478 
	C529.021667,121.981285 533.265625,112.064804 537.144714,102.072960 
	C538.975952,97.355980 536.940369,96.617546 533.501953,96.510345 
	C527.011658,96.308014 520.510742,96.460991 514.014343,96.436180 
	C511.307983,96.425835 509.640900,97.887215 508.684540,100.221832 
	C504.541473,110.335762 500.340759,120.428871 496.429016,130.632294 
	C495.684204,132.575165 494.812531,133.422638 492.951569,133.324997 
	C485.779541,132.948730 478.694244,134.350296 471.557281,134.381668 
	C448.902130,134.481232 426.246246,134.425827 403.590668,134.413895 
	C402.093109,134.413116 400.471375,134.750610 398.458099,133.147369 
	C408.481995,130.533401 417.666656,127.825378 426.994812,125.768028 
	C449.446808,120.816170 471.780243,115.399986 494.753510,109.334435 
M576.878357,170.523483 
	C585.302551,171.225586 593.721680,172.448624 602.151978,172.531754 
	C627.093811,172.777679 652.033752,172.874954 676.944763,170.770798 
	C686.349243,169.976440 695.843933,170.025345 705.204163,168.627548 
	C720.533752,166.338348 733.786682,159.843689 743.826477,147.868439 
	C747.544312,143.433914 751.092285,138.543732 752.105286,131.779053 
	C743.848877,131.228256 736.148621,130.831009 728.436646,132.184814 
	C726.591919,132.508667 725.692505,133.826447 724.811523,135.312393 
	C719.237061,144.714981 710.819031,150.549347 700.277893,152.281097 
	C689.677429,154.022629 678.866577,155.004593 668.123779,155.245728 
	C647.968384,155.698151 627.795654,155.407471 607.630249,155.358582 
	C601.187073,155.342957 594.840881,155.490570 588.411438,153.583893 
	C580.101013,151.119400 574.736328,146.273514 573.689514,137.606583 
	C573.331909,134.646149 572.012024,133.594757 569.248657,133.414978 
	C563.062988,133.012543 556.968628,133.918640 550.849487,134.485962 
	C548.967957,134.660400 547.592590,135.752136 547.533752,137.631729 
	C547.368896,142.905609 546.784302,148.122849 549.955322,153.077820 
	C556.158752,162.771179 564.676453,168.609924 576.878357,170.523483 
M770.852417,162.616547 
	C774.273621,164.949722 777.563782,167.487808 781.781921,168.353210 
	C790.076477,170.054993 798.477234,171.498749 806.895447,171.505310 
	C835.487183,171.527573 864.092957,172.405960 892.654968,169.754105 
	C904.171631,168.684830 915.805786,168.982086 927.041016,165.578598 
	C943.150452,160.698532 955.181580,151.034424 962.595703,135.781647 
	C964.316284,132.241928 963.703796,130.421112 959.465698,130.457199 
	C953.801575,130.505432 948.136292,130.473312 942.472046,130.424866 
	C939.934998,130.403183 938.355713,131.231781 936.981079,133.708206 
	C931.794495,143.051453 923.526978,149.086639 913.339417,151.272949 
	C896.736877,154.835907 879.650146,154.196655 862.778687,155.190781 
	C847.835815,156.071289 832.796204,155.180801 817.807129,155.472382 
	C811.874084,155.587799 806.157349,154.641479 800.619507,153.073029 
	C792.070862,150.651855 785.618958,145.842117 785.590515,135.771896 
	C785.583923,133.443054 784.396729,132.449738 782.185791,132.449005 
	C776.021729,132.446960 769.856934,132.393494 763.693970,132.475891 
	C761.250916,132.508545 759.888733,133.843414 759.181580,136.316086 
	C758.330994,139.290115 758.062256,142.203583 758.772644,145.165344 
	C760.475647,152.265442 764.986511,157.496460 770.852417,162.616547 
M791.574097,123.164452 
	C793.187744,121.733734 794.649231,120.067368 796.439941,118.910789 
	C807.505737,111.763741 820.018433,108.784462 832.844482,108.803207 
	C861.945374,108.845734 891.064392,107.505524 920.156982,109.553406 
	C931.621887,110.360443 936.840088,114.277634 938.871826,125.291344 
	C939.352966,127.899643 940.222412,128.666412 942.620728,128.631302 
	C947.947266,128.553329 953.287415,128.392517 958.599548,128.679565 
	C962.309448,128.880020 963.853149,126.932556 964.314453,123.871658 
	C965.123230,118.505150 964.672852,113.262756 961.481323,108.601082 
	C953.747131,97.304214 942.188232,92.734818 929.341553,92.574196 
	C893.105347,92.121170 856.856262,92.022026 820.649597,94.348686 
	C804.681152,95.374825 789.935669,99.702942 777.162415,109.507988 
	C770.630188,114.522240 764.770996,120.299103 761.879700,128.725082 
	C766.338684,130.428574 770.614441,128.875610 774.563293,129.913864 
	C781.619568,131.769073 787.655457,131.304184 791.574097,123.164452 
M593.784424,115.017616 
	C600.695496,111.996483 608.104492,110.118652 615.441162,109.849937 
	C632.722839,109.216980 650.035156,109.234192 667.333679,108.889893 
	C674.891541,108.739456 682.578796,109.593712 690.222717,109.616791 
	C695.722351,109.633392 701.248535,109.282440 706.716064,109.703438 
	C716.789612,110.479088 726.079529,113.584877 727.390076,126.262878 
	C727.619568,128.482712 728.813965,129.562775 730.977783,129.573380 
	C736.809692,129.601959 742.641846,129.608810 748.473755,129.588196 
	C750.607910,129.580658 752.140320,128.376907 752.345093,126.378532 
	C753.121704,118.801140 753.154358,111.294441 747.196777,105.373917 
	C739.394775,97.620331 729.701050,93.487076 718.943054,93.523308 
	C686.642334,93.632133 654.336670,92.642174 622.032166,94.273590 
	C609.851990,94.888702 597.803162,95.570602 586.191650,99.451675 
	C572.080994,104.168091 560.227905,112.059433 552.252380,124.966225 
	C549.627869,129.213562 550.424744,130.543777 555.412903,130.611526 
	C560.744873,130.683975 566.078735,130.616592 571.411743,130.628143 
	C573.465393,130.632599 575.505798,130.554260 576.631226,128.457779 
	C580.246399,121.723137 586.676331,118.550743 593.784424,115.017616 
z"/>
</svg>