<svg xmlns="http://www.w3.org/2000/svg" xmlns:xlink="http://www.w3.org/1999/xlink" width="257.868" height="294.549" viewBox="0 0 257.868 294.549"><defs><linearGradient id="linear-gradient" x1="0.272" y1="0.229" x2="0.726" y2="0.768" gradientUnits="objectBoundingBox"><stop offset="0" stop-color="#717479"></stop><stop offset="1" stop-color="#131513"></stop></linearGradient><linearGradient id="linear-gradient-2" x1="0.253" y1="0.741" x2="0.796" y2="0.211" gradientUnits="objectBoundingBox"><stop offset="0" stop-color="#7b7f83"></stop><stop offset="0.08" stop-color="#7b7f83"></stop><stop offset="0.54" stop-color="#fff"></stop><stop offset="1" stop-color="#575f67"></stop></linearGradient><linearGradient id="linear-gradient-3" x1="0.749" y1="0.749" x2="0.241" y2="0.241" gradientUnits="objectBoundingBox"><stop offset="0" stop-color="#131513"></stop><stop offset="0.11" stop-color="#f4f2f3"></stop><stop offset="0.42" stop-color="#41494f"></stop><stop offset="0.53" stop-color="#41494f"></stop><stop offset="1" stop-color="#131513"></stop></linearGradient><radialGradient id="radial-gradient" cx="0.954" cy="0.029" r="1.411" gradientTransform="translate(0.036) scale(0.927 1)" gradientUnits="objectBoundingBox"><stop offset="0" stop-color="#fff"></stop><stop offset="0.1" stop-color="#fff"></stop><stop offset="1" stop-color="#959ba0"></stop></radialGradient><linearGradient id="linear-gradient-4" x1="1.18" y1="0.319" x2="0.049" y2="1.054" gradientUnits="objectBoundingBox"><stop offset="0" stop-color="#959ba0"></stop><stop offset="1" stop-color="#41494f"></stop></linearGradient></defs><g id="logo-negro-zanella" transform="translate(-528.236 65.437)"><circle id="Elipse_1" data-name="Elipse 1" cx="108.045" cy="108.045" r="108.045" transform="translate(549.126 -65.437)" fill="#0f0c08"></circle><path id="Trazado_15" data-name="Trazado 15" d="M627.511,6.421s-41,59.917-59,86.2a88.663,88.663,0,0,1-6.468-97.6l65.471,11.4ZM728.263,38.915a88.416,88.416,0,0,1-11.466,43.6L651.152,71.07s40.822-59.652,58.872-86.024a88.408,88.408,0,0,1,18.239,53.868ZM581.586-28.633a88.658,88.658,0,0,1,115.48-.006c-36.658-1.25-77.891-1.244-115.48.006ZM697.485,106.1a88.672,88.672,0,0,1-116.3.012c36.895,1.263,78.467,1.263,116.3-.012ZM639.35-63.746A102.667,102.667,0,1,0,742.015,38.921,102.787,102.787,0,0,0,639.35-63.746Z" transform="translate(17.821 3.568)" fill="#1e120d" fill-rule="evenodd"></path><path id="Trazado_16" data-name="Trazado 16" d="M536.683,38.992A102.785,102.785,0,0,0,639.344,141.656h0A102.775,102.775,0,0,0,742,38.992h0A102.774,102.774,0,0,0,639.344-63.666h0A102.784,102.784,0,0,0,536.683,38.992Zm4.7-.1a98.009,98.009,0,0,1,98.009-98.012h0A98.009,98.009,0,0,1,737.4,38.892h0a98.013,98.013,0,0,1-98.012,98.018h0a98.012,98.012,0,0,1-98.009-98.018Z" transform="translate(17.821 3.737)" fill-rule="evenodd" fill="url(#linear-gradient)"></path><path id="Trazado_17" data-name="Trazado 17" d="M537.184,37.927a101.1,101.1,0,0,0,101.094,101.1h0a101.1,101.1,0,0,0,101.1-101.1h0a101.094,101.094,0,0,0-101.1-101.1h0a101.1,101.1,0,0,0-101.094,101.1Zm9.662.019a91.429,91.429,0,0,1,91.428-91.428h0a91.423,91.423,0,0,1,91.419,91.428h0a91.42,91.42,0,0,1-91.419,91.422h0a91.426,91.426,0,0,1-91.428-91.422Z" transform="translate(18.879 4.783)" fill-rule="evenodd" fill="url(#linear-gradient-2)"></path><path id="Trazado_18" data-name="Trazado 18" d="M540.287,31.365a91.431,91.431,0,0,0,91.428,91.428h0a91.427,91.427,0,0,0,91.425-91.428h0a91.427,91.427,0,1,0-182.854,0Zm3.135,0a88.4,88.4,0,0,1,88.294-88.294h0a88.4,88.4,0,0,1,88.3,88.294h0a88.4,88.4,0,0,1-88.3,88.3h0a88.4,88.4,0,0,1-88.294-88.3Z" transform="translate(25.425 11.338)" fill-rule="evenodd" fill="url(#linear-gradient-3)"></path><path id="Trazado_19" data-name="Trazado 19" d="M541.141,32.047a91.335,91.335,0,1,1,91.341,91.332,91.449,91.449,0,0,1-91.341-91.332Zm-1.163,0a92.5,92.5,0,1,0,92.5-92.5A92.6,92.6,0,0,0,539.978,32.047Z" transform="translate(24.774 10.507)" fill="#fff" fill-rule="evenodd"></path><path id="Trazado_20" data-name="Trazado 20" d="M559.432-50.428a87.8,87.8,0,0,0-13.8,17.023h0C572.7-28.573,614.047-21.15,614.047-21.15h0L547.472,76.3c3.213.239,5.707.4,9.724.482h0L683.983-50.376c-19.971-.771-41.133-1.144-62.246-1.144h0c-21.227,0-42.405.376-62.3,1.092Z" transform="translate(36.694 29.363)" fill-rule="evenodd" fill="url(#radial-gradient)"></path><path id="Trazado_21" data-name="Trazado 21" d="M546.19,55.675c.715.031,1.452.1,2.167.137L614.833-41.3s-.659-.168-1.987-.442Z" transform="translate(37.88 49.984)" fill="#fff" fill-rule="evenodd"></path><path id="Trazado_22" data-name="Trazado 22" d="M576.953,44.193S617.5-15.046,635.426-41.239l1.126-3.635,4.139-3.371L638.424-51l-.031.006L571.837,46.457h.022l5.116-2.261Z" transform="translate(91.99 30.464)" fill="#485156" fill-rule="evenodd"></path><path id="Trazado_23" data-name="Trazado 23" d="M684.34-47.778l-2.348-2.6-7.638-.072L668.405-51.6c-36.4-1.238-77.338-1.231-114.649.012L550.071-48.3c39.69-1.427,84.5-1.5,124.551.053h0C678.546-48.163,681.019-48.008,684.34-47.778Z" transform="translate(46.068 27.237)" fill="#9ca4ab" fill-rule="evenodd"></path><path id="Trazado_24" data-name="Trazado 24" d="M545.015-42.52l65,11.32,5.33-2.239c-.656-.118-41.534-7.467-68.4-12.256L545-42.52Z" transform="translate(35.375 41.652)" fill="#485156" fill-rule="evenodd"></path><path id="Trazado_25" data-name="Trazado 25" d="M549.318,76c40.061,1.552,84.935,1.443,124.613.019h0a86.857,86.857,0,0,0,13.77-17h0c-27.074-4.83-68.444-12.243-68.444-12.243h0l66.566-97.446c-3.212-.239-5.7-.4-9.721-.485h0Z" transform="translate(44.479 30.126)" fill-rule="evenodd" fill="url(#linear-gradient-4)"></path><path id="Trazado_26" data-name="Trazado 26" d="M609.193-39.494S568.5,19.931,550.577,46.122l-1.231,3.648-3.887,3.172,2.27,2.752.018-.006,66.572-97.446-.025,0L609.169-39.5Z" transform="translate(36.335 49.952)" fill="#9ca4ab" fill-rule="evenodd"></path><path id="Trazado_27" data-name="Trazado 27" d="M546.188-10.421l2.354,2.6,7.221.2,5.909.983c36.4,1.231,78.022,1.25,115.337.009l3.514-3.3C640.838-8.5,595.97-8.4,555.909-9.948h.006C551.988-10.032,549.509-10.188,546.188-10.421Z" transform="translate(37.875 116.074)" fill="#485156" fill-rule="evenodd"></path><path id="Trazado_28" data-name="Trazado 28" d="M642.145-9.067l-65-11.32-5.327,2.245c.656.112,41.566,7.445,68.425,12.237Z" transform="translate(91.941 95.047)" fill="#9ca4ab" fill-rule="evenodd"></path><path id="Trazado_29" data-name="Trazado 29" d="M676.045-50.42c-40.31-1.533-84.833-1.421-124.467.006l-2.223,2.23c39.535-1.5,84.823-2.488,125.456-1Z" transform="translate(44.555 29.347)" fill="#fff" fill-rule="evenodd"></path><path id="Trazado_30" data-name="Trazado 30" d="M572.475-19.665,640.924-7.449l-.834,1.342L571.5-18.333Z" transform="translate(91.28 96.57)" fill="#fff" fill-rule="evenodd"></path><path id="Trazado_31" data-name="Trazado 31" d="M622.987,46.961c-2.034,1.424-3.707,2.267-5.815,2.267-1.508,0-4.385-1.356-4.385-4.307,0-4.767,6.12-5.822,10.2-6.35v8.39Zm13.764-19.508c0-6.353-3.181-11.786-17.919-11.786-7.927,0-16.093,2.562-17.916,11.2l11.789,2.488c.84-3.029,2.127-4.917,5.6-4.917,2.569,0,4.758.983,4.758,4V31.76c-11.637.081-24.039,3.334-24.039,14.364,0,9.827,8.02,11.867,11.882,11.867a18.534,18.534,0,0,0,12.231-4.683c.435,2.7.146.933.613,3.635h13.008Z" transform="translate(149.347 171.114)" fill-rule="evenodd"></path><path id="Trazado_32" data-name="Trazado 32" d="M567.493,46.961c-2.037,1.424-3.7,2.267-5.818,2.267-1.508,0-4.391-1.356-4.391-4.307,0-4.767,6.126-5.822,10.209-6.35v8.39Zm-4.158-31.294c-7.933,0-16.093,2.562-17.915,11.2l11.792,2.488c.84-3.029,2.127-4.917,5.6-4.917,2.572,0,4.755.983,4.755,4V31.76c-11.637.081-24.036,3.334-24.036,14.364,0,9.827,8.017,11.867,11.873,11.867a18.591,18.591,0,0,0,12.243-4.683c.435,2.7.14.933.606,3.635H581.26l-.006-29.49C581.254,21.1,578.079,15.667,563.335,15.667Z" transform="translate(32.265 171.114)" fill-rule="evenodd"></path><path id="Trazado_33" data-name="Trazado 33" d="M583.766,15.667c-5.234,0-8.571,3.318-12.054,6.792V16.721H557.507V56.943h14.206V29.985c1.919-2.155,3.5-3.626,6.139-3.626,2.874,0,3.265,2.942,3.265,5.815v24.77h14.206V27.829C595.322,17.856,587.622,15.667,583.766,15.667Z" transform="translate(61.756 171.114)" fill-rule="evenodd"></path><rect id="Rect&#xE1;ngulo_1" data-name="Rect&#xE1;ngulo 1" width="14.205" height="54.287" transform="translate(709.57 173.772)"></rect><rect id="Rect&#xE1;ngulo_2" data-name="Rect&#xE1;ngulo 2" width="14.211" height="54.287" transform="translate(729.643 173.772)"></rect><path id="Trazado_34" data-name="Trazado 34" d="M590.474,24.29c4.027-.438,6.6,2.049,7.336,6.22l-12.271,2.625c-.834-4.32.127-8.322,4.935-8.844Zm6.835,24.064c-5.262,1.1-10.331-1.875-11.1-7.308l27.643-5.822c-.168-1.014-.333-1.8-.523-2.808-2.083-11.553-10.415-16.74-20.745-16.74-13.145,0-21.464,8.841-21.464,21.147,0,13.385,8.854,21.156,21.464,21.156,10.993,0,19.527-5.8,22.7-15.179l-10.306-2.115A10.091,10.091,0,0,1,597.309,48.354Z" transform="translate(90.473 171.133)" fill-rule="evenodd"></path><path id="Trazado_35" data-name="Trazado 35" d="M529.622,23.266h22.39L528.236,57.629V65.8H572.1V53.558h-22L573.468,19.7V11.47H529.622Z" transform="translate(0 162.259)" fill-rule="evenodd"></path></g></svg>