<svg xmlns="http://www.w3.org/2000/svg" width="341.383" height="294.549" viewBox="0 0 341.383 294.549"><g id="logo-negro-kawasaki" transform="translate(107.571 172.004)"><g id="Grupo_1" data-name="Grupo 1" transform="translate(-52.976 -172.004)"><path id="Trazado_1" data-name="Trazado 1" d="M242.952,152.592h60.321a110.332,110.332,0,0,0-85.53-97.439V82.479a84.051,84.051,0,0,1,51.751,44.9H217.743V198.1h51.751A84.051,84.051,0,0,1,217.743,243V270.33a110.333,110.333,0,0,0,85.53-97.439H242.952Z" transform="translate(-82.801 -52.145)" fill="#040405"></path><path id="Trazado_2" data-name="Trazado 2" d="M180.951,82.479V55.153A110.332,110.332,0,0,0,95.42,152.592h60.321v20.3H95.42a110.333,110.333,0,0,0,85.531,97.439V243A84.053,84.053,0,0,1,129.2,198.1h51.753v-70.72H129.2A84.052,84.052,0,0,1,180.951,82.479Z" transform="translate(-95.42 -52.145)" fill="#040405"></path><path id="Trazado_3" data-name="Trazado 3" d="M181.713,272.386a111.126,111.126,0,0,0,30.082,0V53.45a111.006,111.006,0,0,0-30.082,0Z" transform="translate(-86.518 -52.426)" fill="#040405"></path></g><g id="Grupo_2" data-name="Grupo 2" transform="translate(-107.571 61.136)"><path id="Trazado_4" data-name="Trazado 4" d="M1031.171,88.046H1015.9V98.732h15.272V88.046Z" transform="translate(-689.788 -88.046)" fill="#040405"></path><path id="Trazado_5" data-name="Trazado 5" d="M520.278,133.693h15.835l5.4,17.75,5.577-17.75h13.234l5.109,17.75,5.894-17.75H586.3l-11.642,37.839H559.822l-5.962-18.522-5.112,18.522h-15.4l-13.068-37.839Z" transform="translate(-429.957 -111.977)" fill="#040405"></path><path id="Trazado_6" data-name="Trazado 6" d="M744,156.325h13.919a5.61,5.61,0,0,0,5.964,5.7c4.833,0,4.684-2.83,4.684-2.83s.149-2.926-5.172-3.779c-5.967-.9-18.675-1.977-18.675-12.557,0,0-1.14-12.953,18.393-12.953,13.839,0,18.52,6.078,18.52,13.176h-13.28a4.837,4.837,0,0,0-4.9-4.2c-2.9,0-4.533,1.067-4.533,2.417,0,1.771,1.127,2.473,9.214,3.537,9.305,1.917,14.635,4.264,14.635,13.852S772.761,171.4,763.753,171.4,744,168.389,744,156.325Z" transform="translate(-547.246 -109.988)" fill="#040405"></path><path id="Trazado_7" data-name="Trazado 7" d="M845.742,154.718c-3.268,1.421-1.633,3.909-1.633,3.909s1.633,2.691,5.527,1.7c5.609-1.481,5.187-8.94,5.187-8.94s-5.826,1.922-9.081,3.336ZM844.235,144.1H830.362S827.419,128.81,850.7,128.81c0,0,17.274-.994,18.2,12.424.911,13.413-.943,22.54,3.042,27.751H857.092a18.611,18.611,0,0,1-2.058-3.476s-3.977,4.687-12.492,4.687-13.315-4.973-13.315-11.355,3.709-11.084,15.592-13.209c4.747-.853,9.008-1.424,9.227-4.042.2-2.628-3.414-3.127-4.342-3.127,0,0-5.424-.4-5.469,5.634Z" transform="translate(-591.924 -109.408)" fill="#040405"></path><path id="Trazado_8" data-name="Trazado 8" d="M1031.174,133.682H1015.9v37.846h15.27V133.682Z" transform="translate(-689.79 -111.971)" fill="#040405"></path><path id="Trazado_9" data-name="Trazado 9" d="M936.911,155.538H921.654V103.162h15.257v23.51l7.74-9h17.966L949.332,131.8l15.523,23.727H947.249l-8.387-12.751-1.952,2.1v10.661Z" transform="translate(-640.379 -95.971)" fill="#040405"></path><path id="Trazado_10" data-name="Trazado 10" d="M330.429,103.162h15.911v15.969l15.9-15.969h19.893l-20.305,20.882,21.812,31.489H362.942l-12.5-19.739-4.123,4.249v15.5H330.429V103.162Z" transform="translate(-330.429 -95.971)" fill="#040405"></path><path id="Trazado_11" data-name="Trazado 11" d="M454.875,154.718c-3.27,1.421-1.632,3.909-1.632,3.909s1.632,2.691,5.537,1.7c5.607-1.481,5.177-8.94,5.177-8.94s-5.816,1.922-9.082,3.336ZM453.363,144.1H439.5s-2.936-15.287,20.348-15.287c0,0,17.272-.994,18.195,12.424s-.939,22.54,3.051,27.751H466.235a18.27,18.27,0,0,1-2.06-3.476S460.2,170.2,451.68,170.2s-13.322-4.973-13.322-11.355,3.716-11.084,15.6-13.209c4.751-.853,9.008-1.424,9.22-4.042s-3.4-3.127-4.327-3.127c0,0-5.431-.4-5.486,5.634Z" transform="translate(-387.011 -109.408)" fill="#040405"></path><path id="Trazado_12" data-name="Trazado 12" d="M671.928,154.718c-3.258,1.421-1.633,3.909-1.633,3.909s1.633,2.691,5.534,1.7c5.6-1.481,5.192-8.94,5.192-8.94s-5.826,1.922-9.094,3.336Zm-1.51-10.621H656.551s-2.941-15.287,20.342-15.287c0,0,17.287-.994,18.215,12.424s-.945,22.54,3.034,27.751H683.283a18.81,18.81,0,0,1-2.053-3.476s-3.982,4.687-12.489,4.687c-8.527,0-13.33-4.973-13.33-11.355s3.7-11.084,15.594-13.209c4.755-.853,9.013-1.424,9.228-4.042s-3.409-3.127-4.329-3.127c0,0-5.435-.4-5.484,5.634Z" transform="translate(-500.801 -109.408)" fill="#040405"></path></g></g></svg>