<svg xmlns="http://www.w3.org/2000/svg" xmlns:xlink="http://www.w3.org/1999/xlink" width="365.328" height="286.144" viewBox="0 0 365.328 286.144"><defs><linearGradient id="linear-gradient" x1="0.5" y1="-0.187" x2="0.5" y2="1.044" gradientUnits="objectBoundingBox"><stop offset="0" stop-color="#8c8c8c"></stop><stop offset="0.338" stop-color="#fff"></stop><stop offset="1"></stop></linearGradient><linearGradient id="linear-gradient-2" x1="0.5" y1="-1.682" x2="0.5" y2="1.865" gradientUnits="objectBoundingBox"><stop offset="0"></stop><stop offset="1" stop-color="#fff"></stop></linearGradient><linearGradient id="linear-gradient-3" x1="0.5" y1="-0.108" x2="0.5" y2="1.553" xlink:href="#linear-gradient-2"></linearGradient></defs><g id="logo-negro-kymco" transform="translate(-3244 -1812.539)"><path id="Trazado_227" data-name="Trazado 227" d="M324.693,143.19a83.786,83.786,0,0,1-13.158,7.353,120.406,120.406,0,0,1-48.762,10.062c-48.762,0-84.753-25.929-84.753-54.954,0-30.186,37.926-54.954,84.753-54.954a124.555,124.555,0,0,1,32.508,4.257c-18.189-9.288-41.409-15.093-66.951-15.093-54.18,0-98.685,25.542-105.651,58.824h-.774V42.57c-22.446,4.644-41.8,12.771-56.115,22.446v94.041c-31.734-15.093-51.084-36.765-51.084-60.372,0-46.44,75.078-83.979,167.958-83.979,82.431,0,167.958,33.669,167.958,83.979-.387,16.254-9.675,31.734-25.929,44.505ZM182.664,0C81.657,0,0,44.118,0,98.685S81.657,197.37,182.664,197.37s182.664-44.118,182.664-98.685S283.284,0,182.664,0ZM255.42,174.537a307.506,307.506,0,0,1-72.756,8.514,333.594,333.594,0,0,1-60.372-5.418V114.939h.387c3.483,23.22,25.542,43.344,56.115,53.793,14.706,5.031,31.734,7.74,49.923,7.74a149.073,149.073,0,0,0,26.7-2.322Z" transform="translate(3244 1812.539)" fill="url(#linear-gradient)"></path><path id="Trazado_228" data-name="Trazado 228" d="M31.6,29.887V92.581A330.412,330.412,0,0,0,91.972,98a305.086,305.086,0,0,0,72.756-8.514v-.774a149.071,149.071,0,0,1-26.7,2.322A157.058,157.058,0,0,1,88.1,83.293C57.142,72.844,35.47,53.107,31.987,29.5H31.6ZM87.328,86.776c4.644,1.548,9.288,2.709,13.932,3.87H91.972a330.992,330.992,0,0,1-56.889-5.031V48.076c9.288,16.641,27.477,30.186,52.245,38.7Z" transform="translate(3328.4 1897.204)" fill="url(#linear-gradient-2)"></path><path id="Trazado_229" data-name="Trazado 229" d="M311.852,41.726c-24.768-18.576-63.081-30.96-104.1-35.991C196.139,4.574,184.142,3.8,171.758,3.8,79.265,3.8,4.187,41.339,3.8,87.779c0,23.607,19.737,44.892,51.084,60.372V54.11C69.2,44.048,88.94,36.308,111,31.664V87.779h.774c6.966-33.282,51.471-58.824,105.651-58.824,25.155,0,48.762,5.805,66.951,15.093-24.381-13.158-47.6-18.189-66.951-18.576-29.025-.387-56.5,6.966-77.013,20.124C128.8,52.949,119.9,61.85,114.482,71.525V27.407l-4.257.774c-22.446,4.644-42.57,12-57.276,21.285L51.4,50.627v88.236c-25.155-13.545-40.248-31.347-40.248-50.7,0-42.183,71.982-76.626,160.218-76.626S331.589,45.983,331.589,88.166c0,20.511-17.028,39.474-44.892,53.019a126.2,126.2,0,0,1-34.83,5.031c-22.446,0-42.957-6.192-58.437-16.641-13.932-9.288-21.285-21.672-21.285-34.83,0-28.251,35.6-53.019,79.722-53.019,18.189,0,26.7,1.161,30.186,1.935a126.546,126.546,0,0,0-30.186-3.483c-46.827,0-84.753,24.768-84.753,54.954,0,29.025,35.991,54.954,84.753,54.954a120.406,120.406,0,0,0,48.762-10.062,143.9,143.9,0,0,0,13.158-7.353c15.48-12.384,24.768-27.09,25.542-42.957V88.166c0-17.415-10.062-33.282-27.477-46.44Z" transform="translate(3255.2 1823.445)" fill="url(#linear-gradient-3)"></path><path id="Trazado_230" data-name="Trazado 230" d="M146.392,5.123h18.981l-19.879,15.5,19.318,31.111H148.863L134.936,28.821l-9.547,7.525V51.733H111.8V5.123h13.59V21.072Zm47.171,15.05,11.568-15.05h15.162l-20.1,26.169V51.733H186.6V31.292L166.609,5.123h15.275ZM255.224,35.9,265.557,5.123h20.778v46.61H273.643V18.376L262.075,51.733h-13.7L236.8,18.376V51.733H224V5.123h20.89Zm67.949-20.666c-9.21,0-15.948,4.942-15.948,13.141,0,8.311,6.739,13.253,15.948,13.253,6.4,0,11.681-2.471,14.264-6.739h14.6c-3.145,10.67-13.927,17.858-28.864,17.858-17.858,0-29.763-10.333-29.763-24.372S305.315,4,323.173,4c14.938,0,25.72,7.3,28.864,17.97h-14.6c-2.583-4.38-7.862-6.739-14.264-6.739ZM385.844,4c17.072,0,29.763,10.445,29.763,24.372s-12.691,24.372-29.763,24.372-29.763-10.333-29.763-24.372C356.081,14.445,368.772,4,385.844,4Zm0,37.625c9.21,0,15.948-5.5,15.948-13.253,0-7.637-6.739-13.253-15.948-13.253S369.9,20.735,369.9,28.372,376.634,41.625,385.844,41.625Z" transform="translate(3163.2 2045.939)"></path></g></svg>