<svg xmlns="http://www.w3.org/2000/svg" width="297.684" height="294.549" viewBox="0 0 297.684 294.549"><g id="logo-negro-bajaj" transform="translate(-197.109 -234.089)"><path id="Trazado_13" data-name="Trazado 13" d="M623.026,311.254c3.277,0,6.013-1.639,6.013-4.917V275.458h14.481v32.336c0,9.749-6.375,13.025-14.754,13.025H604.629a5.431,5.431,0,0,1-4.646-2.549l-3.738-6.2v-.819Zm-26.781,9.564h.456l-.456-.728Zm0-8.745-.453-.819h.453v.819Zm0,8.017-26.869-44.632H550.7l-26.509,44.087v1.273h16.3l19.586-34.429,9.563,16.847h-10.93a5.7,5.7,0,0,0-4.735,2.554l-4.19,6.923h25.229l4.646,8.105h16.578v-.728Zm-72.051-7.1V275.458h.728v32.336A15.314,15.314,0,0,1,524.194,312.986Zm0-37.528v37.528c-1.91,5.74-7.288,7.833-13.935,7.833H486.117a5.711,5.711,0,0,1-4.735-2.549l-3.731-6.2v-.819h26.872c3.277,0,5.917-1.639,5.917-4.917V275.458Zm0,44.087-.73,1.273h.73v-1.273Zm-46.544,1.273h.456l-.456-.728Zm0-9.564v.819l-.46-.819Zm0,8.836-26.788-44.632H432.281l-26.5,44.087v1.273h16.3l19.491-34.429,9.569,16.847H440.21a5.54,5.54,0,0,0-4.644,2.554l-4.192,6.923h25.143l4.549,8.105H477.65v-.728Zm-71.873-7.1v-8.381a9.887,9.887,0,0,1,.819,4.01,11.037,11.037,0,0,1-.819,4.37Zm0-21.955v-7.739a9.693,9.693,0,0,1,.819,4.1A8.223,8.223,0,0,1,405.777,291.031Zm0-7.739v7.739c-1.552,3.373-5.1,5.74-9.107,6.743,4.735,1.459,7.834,3.827,9.107,6.832v8.381c-2.826,7.014-12.934,7.833-20.407,7.833h-9.928v-9.564h9.746a4.982,4.982,0,0,0,5.372-4.735c0-2.643-2.366-4.737-5.372-4.737h-9.746v-9.563h9.928c2.825,0,5.191-1.37,5.191-3.645s-2.277-3.553-5.191-3.553h-9.928v-9.563h9.928c6.923,0,17.491.821,20.407,7.834Zm0,36.253-.73,1.273h.73Zm-30.334-44.087v9.563H360.321v16.761l4.193-7.012a5.689,5.689,0,0,1,4.737-2.551h6.191v9.563H360.321v19.036l4.193-7.015a5.928,5.928,0,0,1,4.737-2.549h6.191v9.564H345.837V275.458Zm-15.122,26.324Z" transform="translate(-148.728 207.82)" fill-rule="evenodd"></path><path id="Trazado_14" data-name="Trazado 14" d="M294.023,369.331,257,352.337l-.217-44.426,85.587,39.207,22.864-10.457c1.531-.876,2.845-2.179,2.845-3.924s-1.314-3.048-3.055-3.909l-77.1-35.07,68.825-31.58a16.378,16.378,0,0,1,5.874-1.09,17.383,17.383,0,0,1,5.882,1.09l103.236,47.26c4.788,2.4,10.663,4.785,10.663,11.546,0,6.533-5.432,8.7-10.442,11.1l-81.244,37.245,81.244,37.024c5.009,2.392,10.442,4.579,10.442,11.108,0,6.758-5.874,9.147-10.663,11.543L368.5,476.266a17.66,17.66,0,0,1-5.882,1.082,16.629,16.629,0,0,1-5.874-1.082l-68.825-31.58,77.1-35.062c1.741-.876,3.055-2.179,3.055-3.924s-1.314-3.044-2.845-3.916l-22.864-10.457-85.587,39.2L257,386.1Z" transform="translate(-23.639 -27)" fill-rule="evenodd"></path></g></svg>